<svg xmlns="http://www.w3.org/2000/svg" xmlns:xlink="http://www.w3.org/1999/xlink" fill="none" version="1.1" width="244" height="197.999755859375" viewBox="0 0 244 197.999755859375"><defs><linearGradient x1="0.5023483633995056" y1="1" x2="0.5051803883547927" y2="0.000006360577297286106" id="master_svg0_0_4335"><stop offset="0%" stop-color="#D7F3FF" stop-opacity="0"/><stop offset="18.82299929857254%" stop-color="#F3D7FF" stop-opacity="0"/><stop offset="100%" stop-color="#CB70FF" stop-opacity="1"/></linearGradient></defs><g><g><g><ellipse cx="122" cy="142.49976348876953" rx="122" ry="55.5" fill="url(#master_svg0_0_4335)" fill-opacity="1"/></g><g><path d="M122.61503651123047,0.262763C122.61503651123047,0.262763,118.19203651123047,1.40376,118.19203651123047,1.40376C118.19203651123047,1.40376,63.697036511230465,15.4568,63.697036511230465,15.4568C63.697036511230465,15.4568,59.27399651123047,16.5968,59.27399651123047,16.5968C57.126996511230466,17.1528,55.288996511230465,18.5388,54.16199651123047,20.4488C53.03500231123047,22.3588,52.71199651123047,24.6378,53.26299951123047,26.7858C53.26299951123047,26.7858,72.44303651123047,101.161,72.44303651123047,101.161C72.99903651123047,103.308,74.38403651123048,105.147,76.29403651123047,106.274C78.20503651123047,107.401,80.48403651123047,107.724,82.63203651123047,107.173C82.63203651123047,107.173,82.64303651123046,107.17,82.64303651123046,107.17C82.64303651123046,107.17,145.96103651123047,90.8408,145.96103651123047,90.8408C145.96103651123047,90.8408,145.97303651123048,90.8378,145.97303651123048,90.8378C148.11903651123046,90.2818,149.9580365112305,88.8968,151.08503651123047,86.9868C152.21203651123045,85.0768,152.5350365112305,82.7978,151.98403651123047,80.6488C151.98403651123047,80.6488,132.80403651123046,6.27376,132.80403651123046,6.27376C132.24803651123045,4.12676,130.86303651123046,2.28876,128.95203651123046,1.16176C127.04203651123046,0.0347658,124.76303651123047,-0.28824,122.61503651123047,0.262763C122.61503651123047,0.262763,122.61503651123047,0.262763,122.61503651123047,0.262763Z" fill="#F2F2F2" fill-opacity="1"/></g><g><path d="M123.21597669677735,2.5947637550354004C123.21597669677735,2.5947637550354004,117.97797669677735,3.9457587550354,117.97797669677735,3.9457587550354C117.97797669677735,3.9457587550354,65.11500669677734,17.577738755035398,65.11500669677734,17.577738755035398C65.11500669677734,17.577738755035398,59.87599669677734,18.9287387550354,59.87599669677734,18.9287387550354C58.346996696777346,19.3247387550354,57.038006696777344,20.3117387550354,56.23500069677734,21.6717387550354C55.43299869677735,23.031738755035402,55.202003696777346,24.6547387550354,55.595001696777345,26.1847387550354C55.595001696777345,26.1847387550354,74.77497669677734,100.5597387550354,74.77497669677734,100.5597387550354C75.17097669677734,102.0887387550354,76.15697669677735,103.3974387550354,77.51797669677734,104.2004387550354C78.87797669677735,105.0024387550354,80.50097669677734,105.2334387550354,82.03097669677734,104.84043875503541C82.03097669677734,104.84043875503541,82.04197669677734,104.83743875503541,82.04197669677734,104.83743875503541C82.04197669677734,104.83743875503541,145.35997669677732,88.5097387550354,145.35997669677732,88.5097387550354C145.35997669677732,88.5097387550354,145.37097669677735,88.5067387550354,145.37097669677735,88.5067387550354C146.89997669677734,88.1107387550354,148.20997669677735,87.1237387550354,149.01197669677734,85.7637387550354C149.81497669677736,84.4037387550354,150.04497669677733,82.7807387550354,149.65197669677735,81.2507387550354C149.65197669677735,81.2507387550354,130.47197669677735,6.875758755035401,130.47197669677735,6.875758755035401C130.07597669677733,5.346758755035401,129.08997669677734,4.0377687550354,127.72997669677734,3.2347627550354003C126.36897669677734,2.4327607550354005,124.74597669677735,2.2017657550354004,123.21597669677735,2.5947637550354004C123.21597669677735,2.5947637550354004,123.21597669677735,2.5947637550354004,123.21597669677735,2.5947637550354004Z" fill="#FFFFFF" fill-opacity="1"/></g><g><path d="M119.26099923095703,26.678761092529296C119.26099923095703,26.678761092529296,87.22999923095703,34.938801092529296,87.22999923095703,34.938801092529296C86.87199923095703,35.0318010925293,86.49200923095704,34.9778010925293,86.17399923095704,34.789801092529295C85.85600623095704,34.6018010925293,85.62500323095703,34.295801092529295,85.53300803095703,33.9378010925293C85.44099753095703,33.579761092529296,85.49400661095703,33.200771092529294,85.68201023095703,32.88276109252929C85.86999823095704,32.5637610925293,86.17599823095703,32.3337610925293,86.53399923095704,32.2407610925293C86.53399923095704,32.2407610925293,118.56499923095703,23.980765192529297,118.56499923095703,23.980765192529297C118.92199923095703,23.888762392529298,119.30199923095702,23.942763222529297,119.61999923095703,24.130759092529296C119.93799923095703,24.3187630925293,120.16799923095704,24.6247620925293,120.25999923095702,24.982761092529298C120.35299923095704,25.339761092529297,120.29899923095704,25.719761092529296,120.11199923095703,26.037761092529298C119.92399923095704,26.355761092529296,119.61799923095703,26.586771092529297,119.26099923095703,26.678761092529296C119.26099923095703,26.678761092529296,119.26099923095703,26.678761092529296,119.26099923095703,26.678761092529296Z" fill="#F2F2F2" fill-opacity="1"/></g><g><path d="M125.99895269775391,29.797768340454102C125.99895269775391,29.797768340454102,88.4030026977539,39.4927583404541,88.4030026977539,39.4927583404541C88.0460026977539,39.5847583404541,87.66600269775391,39.5307583404541,87.34800869775391,39.3437583404541C87.02999969775391,39.1557583404541,86.7989966977539,38.848758340454104,86.70700189775391,38.4917583404541C86.6139995977539,38.1337583404541,86.6680004177539,37.7537583404541,86.8560036977539,37.4357583404541C87.04400769775391,37.1177583404541,87.35000769775391,36.8867583404541,87.70799269775391,36.7947583404541C87.70799269775391,36.7947583404541,125.30295269775391,27.0997676404541,125.30295269775391,27.0997676404541C125.66095269775391,27.0077572404541,126.0399526977539,27.060766220454102,126.3589526977539,27.248754340454102C126.6769526977539,27.4367583404541,126.90695269775391,27.7427573404541,126.99995269775391,28.100758340454103C127.0919526977539,28.4587583404541,127.03795269775391,28.8377583404541,126.85095269775391,29.1567583404541C126.66295269775391,29.4747683404541,126.35605269775391,29.704768340454102,125.99895269775391,29.797768340454102C125.99895269775391,29.797768340454102,125.99895269775391,29.797768340454102,125.99895269775391,29.797768340454102Z" fill="#F2F2F2" fill-opacity="1"/></g><g><path d="M124.52202370605468,47.080754407958985C124.52202370605468,47.080754407958985,92.49100370605468,55.34072440795899,92.49100370605468,55.34072440795899C92.31399370605469,55.38672440795899,92.12900370605469,55.396724407958985,91.94800370605469,55.371724407958986C91.76700370605468,55.34572440795898,91.59300370605469,55.28472440795898,91.43499870605469,55.191724407958986C91.27800170605468,55.09872440795898,91.14000070605469,54.975724407958985,91.0300007060547,54.829724407958985C90.91999970605468,54.683724407958984,90.83999790605469,54.51772440795899,90.79400790605469,54.33972440795898C90.74800267605468,54.162754407958985,90.73800820605469,53.978764407958984,90.76400910605469,53.79776440795899C90.78900300605468,53.61676440795898,90.85000770605468,53.441764407958985,90.94299470605469,53.28476440795899C91.03599670605469,53.12676440795899,91.15899770605469,52.98876440795898,91.30499470605469,52.87876440795898C91.45199770605468,52.76876440795898,91.6179977060547,52.68875440795898,91.79500370605469,52.64376440795898C91.79500370605469,52.64376440795898,123.82602370605468,44.38275920795898,123.82602370605468,44.38275920795898C124.00302370605469,44.337761037958984,124.18802370605468,44.32675940795898,124.36902370605469,44.35276040795898C124.55002370605469,44.37876140795898,124.72402370605468,44.439766407958984,124.8820237060547,44.53276840795898C125.03902370605468,44.62577040795898,125.17702370605468,44.748756407958986,125.2870237060547,44.89476740795899C125.39702370605468,45.04076440795898,125.4770237060547,45.206764407958985,125.52302370605469,45.38475440795899C125.56902370605468,45.56176440795898,125.57902370605468,45.74576440795899,125.55302370605469,45.926764407958984C125.52802370605468,46.10776440795898,125.46702370605469,46.282764407958986,125.37402370605469,46.43976440795898C125.2810237060547,46.59777440795899,125.15802370605468,46.735754407958986,125.01202370605469,46.845754407958985C124.86502370605469,46.95476440795898,124.69902370605469,47.03575440795898,124.52202370605468,47.080754407958985C124.52202370605468,47.080754407958985,124.52202370605468,47.080754407958985,124.52202370605468,47.080754407958985Z" fill="#F2F2F2" fill-opacity="1"/></g><g><path d="M131.25996381835938,50.198770540771484C131.25996381835938,50.198770540771484,93.66499381835938,59.89481054077149,93.66499381835938,59.89481054077149C93.48800381835937,59.93981054077148,93.30399381835937,59.950810540771485,93.12299381835938,59.92481054077148C92.94099381835937,59.898810540771485,92.76699481835938,59.83771054077148,92.60999681835938,59.744710540771486C92.45199181835937,59.65171054077148,92.31399181835937,59.52881054077149,92.20399081835937,59.382710540771484C92.09399081835937,59.23671054077148,92.01400391835938,59.070710540771486,91.96799861835937,58.892810540771485C91.92300044835937,58.715810540771486,91.91199881835938,58.531710540771485,91.93799981835937,58.35071054077149C91.96400081835938,58.16971054077148,92.02498981835937,57.994710540771486,92.11799281835937,57.83771054077148C92.21099481835938,57.67971054077148,92.33399581835937,57.541810540771486,92.47999181835938,57.43177054077148C92.62600381835938,57.32276054077148,92.79200381835938,57.24176054077148,92.96899381835938,57.19677054077148C92.96899381835938,57.19677054077148,130.5649638183594,47.50175974077148,130.5649638183594,47.50175974077148C130.92196381835936,47.40875744077148,131.30196381835938,47.46275826077149,131.61996381835937,47.650761540771484C131.93896381835938,47.83876554077148,132.16896381835937,48.14476554077149,132.26096381835936,48.502770540771486C132.35396381835938,48.85976054077148,132.29996381835937,49.23977054077148,132.11196381835938,49.55776054077148C131.92496381835937,49.876760540771485,131.61796381835939,50.106750540771486,131.25996381835938,50.198770540771484C131.25996381835938,50.198770540771484,131.25996381835938,50.198770540771484,131.25996381835938,50.198770540771484Z" fill="#F2F2F2" fill-opacity="1"/></g><g><path d="M129.78300784912108,67.4837534423828C129.78300784912108,67.4837534423828,97.7519978491211,75.74375344238281,97.7519978491211,75.74375344238281C97.3950078491211,75.83575344238281,97.01499784912109,75.78175344238281,96.6970058491211,75.59375344238282C96.37899784912109,75.40575344238282,96.14900184912109,75.09975344238282,96.0559993491211,74.74175344238282C95.9640041491211,74.38475344238282,96.0180049591211,74.00476344238281,96.20500184912109,73.68675344238281C96.3930048491211,73.36876344238281,96.6990048491211,73.1377634423828,97.0559978491211,73.0457634423828C97.0559978491211,73.0457634423828,129.0870078491211,64.78575554238282,129.0870078491211,64.78575554238282C129.44500784912108,64.69376024238281,129.8250078491211,64.74675405238281,130.1430078491211,64.93475744238282C130.4610078491211,65.12276144238281,130.6920078491211,65.42876044238281,130.7840078491211,65.7867634423828C130.8760078491211,66.14476344238281,130.8230078491211,66.52376344238282,130.6350078491211,66.84276344238282C130.4470078491211,67.16075344238281,130.14100784912108,67.3907634423828,129.78300784912108,67.4837534423828C129.78300784912108,67.4837534423828,129.78300784912108,67.4837534423828,129.78300784912108,67.4837534423828Z" fill="#F2F2F2" fill-opacity="1"/></g><g><path d="M136.5209583251953,70.60176728759765C136.5209583251953,70.60176728759765,98.9259883251953,80.29675728759766,98.9259883251953,80.29675728759766C98.74898832519531,80.34275728759766,98.56398832519531,80.35275728759765,98.38298832519531,80.32775728759765C98.20198832519532,80.30175728759765,98.02698932519532,80.24075728759766,97.86999132519531,80.14775728759766C97.71200232519531,80.05475728759765,97.57400132519531,79.93175728759766,97.46400032519531,79.78575728759766C97.35400032519532,79.63975728759766,97.27399842519532,79.47275728759766,97.22799312519531,79.29575728759765C97.18299495519531,79.11875728759766,97.17199332519532,78.93375728759766,97.19799432519531,78.75275728759766C97.22300352519531,78.57175728759765,97.28500032519531,78.39675728759765,97.37800232519531,78.23975728759766C97.47098932519532,78.08175728759765,97.5939903251953,77.94475728759765,97.74000132519531,77.83476728759766C97.88698932519532,77.72476728759766,98.05299032519531,77.64476728759766,98.22998832519531,77.59875728759766C98.22998832519531,77.59875728759766,135.8259583251953,67.90376658759766,135.8259583251953,67.90376658759766C136.18295832519533,67.81175618759765,136.56295832519532,67.86476516759765,136.8809583251953,68.05275328759765C137.19995832519533,68.24075728759766,137.42995832519532,68.54675628759766,137.52195832519533,68.90475728759766C137.61495832519532,69.26275728759765,137.56095832519532,69.64276728759765,137.37295832519533,69.96075728759766C137.18595832519532,70.27876728759766,136.8789583251953,70.50975728759765,136.5209583251953,70.60176728759765C136.5209583251953,70.60176728759765,136.5209583251953,70.60176728759765,136.5209583251953,70.60176728759765Z" fill="#F2F2F2" fill-opacity="1"/></g><g><path d="M81.76096707763672,43.408729956054685C81.76096707763672,43.408729956054685,70.42599707763672,46.33172995605469,70.42599707763672,46.33172995605469C70.25399707763673,46.375729956054684,70.07200707763671,46.34972995605469,69.91999707763672,46.259729956054684C69.76699707763672,46.16972995605469,69.65699707763672,46.02272995605469,69.61199707763672,45.85172995605468C69.61199707763672,45.85172995605468,67.00999387763672,35.76175995605469,67.00999387763672,35.76175995605469C66.96600277763672,35.589759956054685,66.99200374763672,35.407769956054686,67.08200007763672,35.25575995605469C67.17199607763672,35.10275995605469,67.31900007763672,34.992759956054684,67.49000507763672,34.94775995605469C67.49000507763672,34.94775995605469,78.82596707763672,32.024756756054686,78.82596707763672,32.024756756054686C78.99696707763673,31.980765656054686,79.17896707763671,32.006766626054684,79.33196707763672,32.09676295605469C79.48396707763672,32.18675895605469,79.59496707763672,32.332754956054686,79.63896707763672,32.504767956054685C79.63896707763672,32.504767956054685,82.24096707763672,42.594729956054685,82.24096707763672,42.594729956054685C82.28496707763672,42.76672995605469,82.25996707763672,42.94872995605469,82.16996707763671,43.100729956054685C82.07996707763672,43.253729956054684,81.93296707763672,43.363729956054684,81.76096707763672,43.408729956054685C81.76096707763672,43.408729956054685,81.76096707763672,43.408729956054685,81.76096707763672,43.408729956054685Z" fill="#E6E6E6" fill-opacity="1"/></g><g><path d="M87.02296811523438,63.81172983398437C87.02296811523438,63.81172983398437,75.68800811523437,66.73472983398437,75.68800811523437,66.73472983398437C75.51600811523437,66.77872983398437,75.33399811523438,66.75272983398438,75.18200811523438,66.66272983398437C75.02900811523438,66.57272983398437,74.91799811523437,66.42672983398438,74.87399811523437,66.25472983398437C74.87399811523437,66.25472983398437,72.27200531523438,56.16475983398438,72.27200531523438,56.16475983398438C72.22799901523437,55.99275983398437,72.25399995523438,55.810769833984374,72.34399631523438,55.65875983398438C72.43400811523438,55.50575983398438,72.58099611523437,55.39575983398437,72.75200111523438,55.35075983398438C72.75200111523438,55.35075983398438,84.08696811523437,52.42775663398437,84.08696811523437,52.42775663398437C84.25896811523438,52.38376553398437,84.44096811523437,52.40976650398437,84.59296811523437,52.49976283398438C84.74596811523438,52.58975883398438,84.85696811523438,52.73676283398437,84.90096811523438,52.90776783398437C84.90096811523438,52.90776783398437,87.50296811523438,62.99772983398437,87.50296811523438,62.99772983398437C87.54696811523438,63.16972983398438,87.52096811523438,63.35172983398438,87.43096811523438,63.50372983398437C87.34096811523438,63.65672983398437,87.19396811523437,63.767729833984376,87.02296811523438,63.81172983398437C87.02296811523438,63.81172983398437,87.02296811523438,63.81172983398437,87.02296811523438,63.81172983398437Z" fill="#E6E6E6" fill-opacity="1"/></g><g><path d="M92.28396970214844,84.21278612060547C92.28396970214844,84.21278612060547,80.94900970214843,87.13678612060546,80.94900970214843,87.13678612060546C80.77699970214844,87.18078612060546,80.59499970214844,87.15478612060546,80.44299970214844,87.06478612060548C80.28999970214844,86.97478612060547,80.17999970214844,86.82778612060547,80.13499970214843,86.65678612060547C80.13499970214843,86.65678612060547,77.53300690214844,76.56575612060547,77.53300690214844,76.56575612060547C77.48900060214844,76.39476612060547,77.51500154214844,76.21275612060546,77.60499790214844,76.05975612060547C77.69500970214844,75.90776612060547,77.84199770214843,75.79675612060547,78.01300270214844,75.75276612060547C78.01300270214844,75.75276612060547,89.34896970214844,72.82976332060547,89.34896970214844,72.82976332060547C89.51996970214844,72.78575702060547,89.70196970214843,72.81076614060547,89.85496970214844,72.90076252060547C90.00696970214844,72.99075912060547,90.11796970214844,73.13776212060547,90.16196970214844,73.30975912060546C90.16196970214844,73.30975912060546,92.76396970214844,83.39978612060547,92.76396970214844,83.39978612060547C92.80796970214844,83.57078612060548,92.78296970214843,83.75278612060546,92.69296970214843,83.90578612060547C92.60296970214844,84.05778612060547,92.45596970214844,84.16878612060547,92.28396970214844,84.21278612060547C92.28396970214844,84.21278612060547,92.28396970214844,84.21278612060547,92.28396970214844,84.21278612060547Z" fill="#E6E6E6" fill-opacity="1"/></g><g><path d="M166.7920075683594,19.115758895874023C166.7920075683594,19.115758895874023,101.37899756835938,19.115758895874023,101.37899756835938,19.115758895874023C99.16099756835938,19.118764875874025,97.03500756835938,20.000760895874024,95.46699756835937,21.568758895874023C93.89799456835938,23.136758895874024,93.01600646835938,25.263768895874023,93.01400756835938,27.48076889587402C93.01400756835938,27.48076889587402,93.01400756835938,104.28975889587403,93.01400756835938,104.28975889587403C93.01600646835938,106.50775889587402,93.89799456835938,108.63375889587402,95.46699756835937,110.20175889587402C97.03500756835938,111.76975889587402,99.16099756835938,112.65175889587402,101.37899756835938,112.65475889587402C101.37899756835938,112.65475889587402,166.7920075683594,112.65475889587402,166.7920075683594,112.65475889587402C169.01000756835936,112.65175889587402,171.1360075683594,111.76975889587402,172.70400756835937,110.20175889587402C174.27200756835936,108.63375889587402,175.15400756835936,106.50775889587402,175.15700756835938,104.28975889587403C175.15700756835938,104.28975889587403,175.15700756835938,27.48076889587402,175.15700756835938,27.48076889587402C175.15400756835936,25.263768895874023,174.27200756835936,23.136758895874024,172.70400756835937,21.568758895874023C171.1360075683594,20.000760895874024,169.01000756835936,19.118764875874025,166.7920075683594,19.115758895874023C166.7920075683594,19.115758895874023,166.7920075683594,19.115758895874023,166.7920075683594,19.115758895874023Z" fill="#E6E6E6" fill-opacity="1"/></g><g><path d="M166.7919970703125,21.52376365661621C166.7919970703125,21.52376365661621,101.3789970703125,21.52376365661621,101.3789970703125,21.52376365661621C99.8000070703125,21.52576255661621,98.2850070703125,22.15376065661621,97.1690070703125,23.27076365661621C96.0520020703125,24.38675365661621,95.4239959703125,25.90175365661621,95.4219970703125,27.48076365661621C95.4219970703125,27.48076365661621,95.4219970703125,104.28876365661621,95.4219970703125,104.28876365661621C95.4239959703125,105.86876365661621,96.0520020703125,107.3827636566162,97.1690070703125,108.49976365661621C98.2850070703125,109.61576365661621,99.8000070703125,110.24476365661621,101.3789970703125,110.2457636566162C101.3789970703125,110.2457636566162,166.7919970703125,110.2457636566162,166.7919970703125,110.2457636566162C168.3709970703125,110.24476365661621,169.8849970703125,109.61576365661621,171.00199707031248,108.49976365661621C172.1189970703125,107.3827636566162,172.7469970703125,105.86876365661621,172.7489970703125,104.28876365661621C172.7489970703125,104.28876365661621,172.7489970703125,27.48076365661621,172.7489970703125,27.48076365661621C172.7469970703125,25.90175365661621,172.1189970703125,24.38675365661621,171.00199707031248,23.27076365661621C169.8849970703125,22.15376065661621,168.3709970703125,21.52576255661621,166.7919970703125,21.52376365661621C166.7919970703125,21.52376365661621,166.7919970703125,21.52376365661621,166.7919970703125,21.52376365661621Z" fill="#FFFFFF" fill-opacity="1"/></g><g><path d="M173.66399719238282,121.99976312255859C182.09799719238282,121.99976312255859,188.9339971923828,115.1627631225586,188.9339971923828,106.72876312255859C188.9339971923828,98.2957731225586,182.09799719238282,91.4587631225586,173.66399719238282,91.4587631225586C165.22999719238283,91.4587631225586,158.39399719238284,98.2957731225586,158.39399719238284,106.72876312255859C158.39399719238284,115.1627631225586,165.22999719238283,121.99976312255859,173.66399719238282,121.99976312255859C173.66399719238282,121.99976312255859,173.66399719238282,121.99976312255859,173.66399719238282,121.99976312255859Z" fill="#C662FB" fill-opacity="1"/></g><g><path d="M180.96700329589845,104.73675922607421C180.96700329589845,104.73675922607421,175.65600329589844,104.73675922607421,175.65600329589844,104.73675922607421C175.65600329589844,104.73675922607421,175.65600329589844,99.42575922607422,175.65600329589844,99.42575922607422C175.65600329589844,98.89775922607421,175.44600329589844,98.39077022607422,175.07300329589845,98.01676222607422C174.69900329589845,97.64376022607422,174.19200329589845,97.43376922607422,173.66400329589842,97.43376922607422C173.13600329589843,97.43376922607422,172.62899329589843,97.64376022607422,172.25599329589843,98.01676222607422C171.88200329589844,98.39077022607422,171.67199329589843,98.89775922607421,171.67199329589843,99.42575922607422C171.67199329589843,99.42575922607422,171.67199329589843,104.73675922607421,171.67199329589843,104.73675922607421C171.67199329589843,104.73675922607421,166.36099329589842,104.73675922607421,166.36099329589842,104.73675922607421C165.83299329589843,104.73675922607421,165.32600429589843,104.94676922607422,164.95300329589844,105.32075922607422C164.57899429589844,105.69375922607422,164.36900329589844,106.20076922607421,164.36900329589844,106.72876922607422C164.36900329589844,107.25676922607423,164.57899429589844,107.76376922607422,164.95300329589844,108.13776922607423C165.32600429589843,108.51076922607422,165.83299329589843,108.72076922607422,166.36099329589842,108.72076922607422C166.36099329589842,108.72076922607422,171.67199329589843,108.72076922607422,171.67199329589843,108.72076922607422C171.67199329589843,108.72076922607422,171.67199329589843,114.03176922607422,171.67199329589843,114.03176922607422C171.67199329589843,114.56076922607421,171.88200329589844,115.06676922607421,172.25599329589843,115.44076922607422C172.62899329589843,115.81376922607421,173.13600329589843,116.02376922607422,173.66400329589842,116.02376922607422C174.19200329589845,116.02376922607422,174.69900329589845,115.81376922607421,175.07300329589845,115.44076922607422C175.44600329589844,115.06676922607421,175.65600329589844,114.56076922607421,175.65600329589844,114.03176922607422C175.65600329589844,114.03176922607422,175.65600329589844,108.72076922607422,175.65600329589844,108.72076922607422C175.65600329589844,108.72076922607422,180.96700329589845,108.72076922607422,180.96700329589845,108.72076922607422C181.49600329589845,108.72076922607422,182.00200329589845,108.51076922607422,182.37600329589844,108.13776922607423C182.74900329589843,107.76376922607422,182.95900329589844,107.25676922607423,182.95900329589844,106.72876922607422C182.95900329589844,106.20076922607421,182.74900329589843,105.69375922607422,182.37600329589844,105.32075922607422C182.00200329589845,104.94676922607422,181.49600329589845,104.73675922607421,180.96700329589845,104.73675922607421C180.96700329589845,104.73675922607421,180.96700329589845,104.73675922607421,180.96700329589845,104.73675922607421Z" fill="#FFFFFF" fill-opacity="1"/></g><g><path d="M156.9469990234375,63.72976373291016C156.9469990234375,63.72976373291016,123.8679990234375,63.72976373291016,123.8679990234375,63.72976373291016C123.6849990234375,63.730763732910155,123.5039990234375,63.69477373291016,123.3350070234375,63.624763732910154C123.1649930234375,63.55475373291016,123.0119930234375,63.45176373291016,122.8820040234375,63.322763732910154C122.75300602343751,63.193763732910156,122.6499940234375,63.03975373291016,122.5800020234375,62.870763732910156C122.5099945234375,62.70176373291016,122.4739990234375,62.51976373291016,122.4739990234375,62.33677373291015C122.4739990234375,62.15377373291015,122.5099945234375,61.972773732910156,122.5800020234375,61.80376473291015C122.6499940234375,61.63475773291016,122.75300602343751,61.480766732910155,122.8820040234375,61.35176873291016C123.0119930234375,61.221763732910155,123.1649930234375,61.11975873291016,123.3350070234375,61.04976673291016C123.5039990234375,60.979759232910155,123.6849990234375,60.943763732910156,123.8679990234375,60.943763732910156C123.8679990234375,60.943763732910156,156.9469990234375,60.943763732910156,156.9469990234375,60.943763732910156C157.31599902343748,60.94477081291016,157.6699990234375,61.09175873291016,157.9309990234375,61.352760732910156C158.19199902343752,61.613761732910156,158.3389990234375,61.96776373291016,158.3389990234375,62.33677373291015C158.3389990234375,62.706763732910154,158.19199902343752,63.060763732910154,157.9309990234375,63.32177373291016C157.6699990234375,63.582753732910156,157.31599902343748,63.72976373291016,156.9469990234375,63.72976373291016C156.9469990234375,63.72976373291016,156.9469990234375,63.72976373291016,156.9469990234375,63.72976373291016Z" fill="#E6E6E6" fill-opacity="1"/></g><g><path d="M162.6929990234375,68.43176669433593C162.6929990234375,68.43176669433593,123.8679990234375,68.43176669433593,123.8679990234375,68.43176669433593C123.6849990234375,68.43176669433593,123.5039990234375,68.39575669433594,123.3350070234375,68.32576669433594C123.1649930234375,68.25575669433594,123.0119930234375,68.15275669433593,122.8820040234375,68.02376669433593C122.75300602343751,67.89476669433594,122.6499940234375,67.74075669433594,122.5800020234375,67.57176669433593C122.5099945234375,67.40275669433593,122.4739990234375,67.22175669433594,122.4739990234375,67.03876669433593C122.4739990234375,66.85475669433593,122.5099945234375,66.67375669433594,122.5800020234375,66.50476569433594C122.6499940234375,66.33575869433594,122.75300602343751,66.18176769433593,122.8820040234375,66.05275469433593C123.0119930234375,65.92375669433594,123.1649930234375,65.82075969433593,123.3350070234375,65.75076769433593C123.5039990234375,65.68076029433594,123.6849990234375,65.64476482733593,123.8679990234375,65.64575664843593C123.8679990234375,65.64575664843593,162.6929990234375,65.64575664843593,162.6929990234375,65.64575664843593C163.0629990234375,65.64575664843593,163.41699902343748,65.79176769433593,163.6779990234375,66.05376169433593C163.9399990234375,66.31476269433594,164.0859990234375,66.66876669433594,164.0859990234375,67.03876669433593C164.0859990234375,67.40776669433593,163.9399990234375,67.76175669433594,163.6779990234375,68.02376669433593C163.41699902343748,68.28476669433594,163.0629990234375,68.43176669433593,162.6929990234375,68.43176669433593C162.6929990234375,68.43176669433593,162.6929990234375,68.43176669433593,162.6929990234375,68.43176669433593Z" fill="#E6E6E6" fill-opacity="1"/></g><g><path d="M156.9469990234375,84.79977105712891C156.9469990234375,84.79977105712891,123.8679990234375,84.79977105712891,123.8679990234375,84.79977105712891C123.6849990234375,84.79977105712891,123.5039990234375,84.76476105712891,123.3350070234375,84.6947710571289C123.1649930234375,84.62476105712891,123.0119930234375,84.5217710571289,122.8820040234375,84.39277105712891C122.75300602343751,84.26276105712891,122.6499940234375,84.1097610571289,122.5800020234375,83.94076105712891C122.5099945234375,83.7717710571289,122.4739990234375,83.58976105712891,122.4739990234375,83.4067610571289C122.4739990234375,83.22376105712891,122.5099945234375,83.0427610571289,122.5800020234375,82.8737560571289C122.6499940234375,82.70476505712891,122.75300602343751,82.5507580571289,122.8820040234375,82.4217610571289C123.0119930234375,82.29177105712891,123.1649930234375,82.1897660571289,123.3350070234375,82.1197590571289C123.5039990234375,82.0497665571289,123.6849990234375,82.0137710571289,123.8679990234375,82.0137710571289C123.8679990234375,82.0137710571289,156.9469990234375,82.0137710571289,156.9469990234375,82.0137710571289C157.31699902343752,82.0137710571289,157.6709990234375,82.1607590571289,157.9319990234375,82.4217610571289C158.1929990234375,82.68276205712891,158.33999902343749,83.0377610571289,158.33999902343749,83.4067610571289C158.33999902343749,83.77676105712891,158.1929990234375,84.13076105712891,157.9319990234375,84.3917610571289C157.6709990234375,84.65276105712891,157.31699902343752,84.79977105712891,156.9469990234375,84.79977105712891C156.9469990234375,84.79977105712891,156.9469990234375,84.79977105712891,156.9469990234375,84.79977105712891Z" fill="#E6E6E6" fill-opacity="1"/></g><g><path d="M162.6929990234375,89.50176690673828C162.6929990234375,89.50176690673828,123.8679990234375,89.50176690673828,123.8679990234375,89.50176690673828C123.6849990234375,89.50176690673828,123.5039990234375,89.46576690673828,123.3350070234375,89.39575690673828C123.1649930234375,89.32576690673828,123.0119930234375,89.22376690673828,122.8820040234375,89.09375690673828C122.75300602343751,88.96475690673829,122.6499940234375,88.81076690673828,122.5800020234375,88.64175690673828C122.5099945234375,88.47276690673829,122.4739990234375,88.29176690673827,122.4739990234375,88.10875690673828C122.4739990234375,87.92575690673829,122.5099945234375,87.74475690673827,122.5800020234375,87.57476090673828C122.6499940234375,87.40576890673829,122.75300602343751,87.25276990673828,122.8820040234375,87.12276490673828C123.0119930234375,86.99376690673829,123.1649930234375,86.89076990673829,123.3350070234375,86.82076290673828C123.5039990234375,86.75176240673828,123.6849990234375,86.71576690673828,123.8679990234375,86.71576690673828C123.8679990234375,86.71576690673828,162.6929990234375,86.71576690673828,162.6929990234375,86.71576690673828C162.8759990234375,86.71576690673828,163.0579990234375,86.75176240673828,163.2269990234375,86.82076290673828C163.3959990234375,86.89076990673829,163.5499990234375,86.99376690673829,163.67899902343748,87.12276490673828C163.8089990234375,87.25276990673828,163.9119990234375,87.40576890673829,163.9819990234375,87.57476090673828C164.0519990234375,87.74475690673827,164.0879990234375,87.92575690673829,164.0879990234375,88.10875690673828C164.0879990234375,88.29176690673827,164.0519990234375,88.47276690673829,163.9819990234375,88.64175690673828C163.9119990234375,88.81076690673828,163.8089990234375,88.96475690673829,163.67899902343748,89.09375690673828C163.5499990234375,89.22376690673828,163.3959990234375,89.32576690673828,163.2269990234375,89.39575690673828C163.0579990234375,89.46576690673828,162.8759990234375,89.50176690673828,162.6929990234375,89.50176690673828C162.6929990234375,89.50176690673828,162.6929990234375,89.50176690673828,162.6929990234375,89.50176690673828Z" fill="#E6E6E6" fill-opacity="1"/></g><g><path d="M116.45900671386718,70.56576104736328C116.45900671386718,70.56576104736328,104.75300571386718,70.56576104736328,104.75300571386718,70.56576104736328C104.57600371386718,70.56576104736328,104.40600571386719,70.49476104736328,104.28100571386719,70.36976104736328C104.15600581386718,70.24476104736328,104.08500671386719,70.07476104736328,104.08500671386719,69.89776104736328C104.08500671386719,69.89776104736328,104.08500671386719,59.47776004736328,104.08500671386719,59.47776004736328C104.08500671386719,59.29976604736328,104.15600581386718,59.13076004736328,104.28100571386719,59.00476804736328C104.40600571386719,58.87976834736328,104.57600371386718,58.80976104736331,104.75300571386718,58.80976104736331C104.75300571386718,58.80976104736331,116.45900671386718,58.80976104736331,116.45900671386718,58.80976104736331C116.63600671386719,58.80976104736331,116.80600671386719,58.87976834736328,116.93100671386719,59.00476804736328C117.05700671386718,59.13076004736328,117.12700671386719,59.29976604736328,117.12700671386719,59.47776004736328C117.12700671386719,59.47776004736328,117.12700671386719,69.89776104736328,117.12700671386719,69.89776104736328C117.12700671386719,70.07476104736328,117.05700671386718,70.24476104736328,116.93100671386719,70.36976104736328C116.80600671386719,70.49476104736328,116.63600671386719,70.56576104736328,116.45900671386718,70.56576104736328C116.45900671386718,70.56576104736328,116.45900671386718,70.56576104736328,116.45900671386718,70.56576104736328Z" fill="#E6E6E6" fill-opacity="1"/></g><g><path d="M116.45900671386718,91.63576837158203C116.45900671386718,91.63576837158203,104.75300571386718,91.63576837158203,104.75300571386718,91.63576837158203C104.57600371386718,91.63576837158203,104.40600571386719,91.56476837158203,104.28100571386719,91.43976837158203C104.15600581386718,91.31476837158203,104.08500671386719,91.14476837158203,104.08500671386719,90.96776837158203C104.08500671386719,90.96776837158203,104.08500671386719,80.54776737158203,104.08500671386719,80.54776737158203C104.08500671386719,80.37076537158202,104.15600581386718,80.20076737158203,104.28100571386719,80.07576737158203C104.40600571386719,79.95076747158203,104.57600371386718,79.87976837158203,104.75300571386718,79.87976837158203C104.75300571386718,79.87976837158203,116.45900671386718,79.87976837158203,116.45900671386718,79.87976837158203C116.63600671386719,79.87976837158203,116.80600671386719,79.95076747158203,116.93100671386719,80.07576737158203C117.05700671386718,80.20076737158203,117.12700671386719,80.37076537158202,117.12700671386719,80.54776737158203C117.12700671386719,80.54776737158203,117.12700671386719,90.96776837158203,117.12700671386719,90.96776837158203C117.12700671386719,91.14476837158203,117.05700671386718,91.31476837158203,116.93100671386719,91.43976837158203C116.80600671386719,91.56476837158203,116.63600671386719,91.63576837158203,116.45900671386718,91.63576837158203C116.45900671386718,91.63576837158203,116.45900671386718,91.63576837158203,116.45900671386718,91.63576837158203Z" fill="#E6E6E6" fill-opacity="1"/></g><g><path d="M156.9840029296875,40.27476190185547C156.9840029296875,40.27476190185547,132.5959929296875,40.27476190185547,132.5959929296875,40.27476190185547C132.2270029296875,40.27476190185547,131.8719939296875,40.12876190185547,131.6109929296875,39.86677190185547C131.3500059296875,39.605761901855466,131.2030029296875,39.25176190185547,131.2030029296875,38.881771901855466C131.2030029296875,38.51276190185547,131.3500059296875,38.15875990185547,131.6109929296875,37.89676690185547C131.8719939296875,37.63576490185547,132.2270029296875,37.4887619018555,132.5959929296875,37.4887619018555C132.5959929296875,37.4887619018555,156.9840029296875,37.4887619018555,156.9840029296875,37.4887619018555C157.3530029296875,37.4887619018555,157.7080029296875,37.63576490185547,157.9690029296875,37.89676690185547C158.2300029296875,38.15875990185547,158.3770029296875,38.51276190185547,158.3770029296875,38.881771901855466C158.3770029296875,39.25176190185547,158.2300029296875,39.605761901855466,157.9690029296875,39.86677190185547C157.7080029296875,40.12876190185547,157.3530029296875,40.27476190185547,156.9840029296875,40.27476190185547C156.9840029296875,40.27476190185547,156.9840029296875,40.27476190185547,156.9840029296875,40.27476190185547Z" fill="#CCCCCC" fill-opacity="1"/></g><g><path d="M162.7300029296875,44.97676593017578C162.7300029296875,44.97676593017578,132.5959929296875,44.97676593017578,132.5959929296875,44.97676593017578C132.4129929296875,44.97676593017578,132.2319929296875,44.93976593017578,132.0630039296875,44.869755930175785C131.8939969296875,44.79976593017578,131.7400059296875,44.697765930175784,131.6109929296875,44.56775593017578C131.4819949296875,44.43875593017578,131.3789979296875,44.28575593017578,131.3090059296875,44.11676593017578C131.2389984296875,43.947765930175784,131.2030029296875,43.76576593017578,131.2030029296875,43.58275593017578C131.2030029296875,43.40076593017578,131.2389984296875,43.21875593017578,131.3090059296875,43.04976693017578C131.3789979296875,42.880759930175785,131.4819949296875,42.72775993017578,131.6109929296875,42.597770930175784C131.7400059296875,42.468757930175784,131.8939969296875,42.36576093017578,132.0630039296875,42.29576893017578C132.2319929296875,42.22576143017578,132.4129929296875,42.18976593017578,132.5959929296875,42.18976593017578C132.5959929296875,42.18976593017578,162.7300029296875,42.18976593017578,162.7300029296875,42.18976593017578C163.1000029296875,42.18976593017578,163.4540029296875,42.33676893017578,163.7150029296875,42.597770930175784C163.9760029296875,42.85976393017578,164.12300292968752,43.21376593017578,164.12300292968752,43.58275593017578C164.12300292968752,43.95276593017578,163.9760029296875,44.30676593017578,163.7150029296875,44.56775593017578C163.4540029296875,44.82976593017578,163.1000029296875,44.97676593017578,162.7300029296875,44.97676593017578C162.7300029296875,44.97676593017578,162.7300029296875,44.97676593017578,162.7300029296875,44.97676593017578Z" fill="#CCCCCC" fill-opacity="1"/></g><g><path d="M127.1989970703125,50.67476902770996C127.1989970703125,50.67476902770996,104.7149960703125,50.67476902770996,104.7149960703125,50.67476902770996C104.5379940703125,50.67476902770996,104.3679960703125,50.60376902770996,104.2429960703125,50.47876902770996C104.1179961703125,50.35376902770996,104.0480041503125,50.18376902770996,104.0469970703125,50.006769027709964C104.0469970703125,50.006769027709964,104.0469970703125,32.45976802770996,104.0469970703125,32.45976802770996C104.0480041503125,32.28276602770996,104.1179961703125,32.11276802770996,104.2429960703125,31.98776802770996C104.3679960703125,31.862768127709963,104.5379940703125,31.79176902770996,104.7149960703125,31.79176902770996C104.7149960703125,31.79176902770996,127.1989970703125,31.79176902770996,127.1989970703125,31.79176902770996C127.37599707031251,31.79176902770996,127.5459970703125,31.862768127709963,127.6709970703125,31.98776802770996C127.7959970703125,32.11276802770996,127.8659970703125,32.28276602770996,127.8669970703125,32.45976802770996C127.8669970703125,32.45976802770996,127.8669970703125,50.006769027709964,127.8669970703125,50.006769027709964C127.8659970703125,50.18376902770996,127.7959970703125,50.35376902770996,127.6709970703125,50.47876902770996C127.5459970703125,50.60376902770996,127.37599707031251,50.67476902770996,127.1989970703125,50.67476902770996C127.1989970703125,50.67476902770996,127.1989970703125,50.67476902770996,127.1989970703125,50.67476902770996Z" fill="#C662FB" fill-opacity="1"/></g></g></g></svg>