<svg xmlns="http://www.w3.org/2000/svg" xmlns:xlink="http://www.w3.org/1999/xlink" fill="none" version="1.1" width="14.833984375" height="15.583251953125" viewBox="0 0 14.833984375 15.583251953125"><g><path d="M0.00032550097,13.729126L0.00032550097,1.854126Q0.00032550097,1.0966003,0.51252925,0.55594081Q1.0392487,-0.000040769577,1.7919922,-0.000040769577L8.1669922,-0.000040735802L12.666992,-0.000040709972L13.041992,-0.000040709972Q13.794748,-0.000040709972,14.321465,0.55594355Q14.833658,1.0965984,14.833658,1.854126L14.833658,13.729126Q14.833658,14.486666,14.32146,15.027319Q13.794748,15.583293,13.04199,15.583293L1.7919922,15.583293Q1.0392474,15.583293,0.51253152,15.027321Q0.00032544136,14.486665,0.00032550097,13.729126ZM8.1669922,14.249959L9.7503252,14.249959L9.7503252,1.3332927L8.1669922,1.3332926L1.7919922,1.3332925Q1.3336589,1.3332925,1.3336589,1.854126L1.3336589,13.729126Q1.3336589,14.24996,1.7919922,14.24996L8.1669922,14.24996L8.1669922,14.249959ZM11.083659,1.3332927L11.083659,14.249959L12.666992,14.249959L13.04199,14.24996Q13.500326,14.24996,13.500326,13.729126L13.500326,1.854126Q13.500326,1.3332927,13.041992,1.3332927L11.083659,1.3332927Z" fill-rule="evenodd" fill="#BD96EE" fill-opacity="1"/></g></svg>